HIERARCHY
ROOT Hips
{
	OFFSET -0.001795 -0.223333 0.028219
	CHANNELS 6 Xposition Yposition Zposition Zrotation Yrotation Xrotation 
	JOINT LeftUpLeg
	{
		OFFSET 0.069520 -0.091406 -0.006815
		CHANNELS 3 Zrotation Yrotation Xrotation
		JOINT LeftLeg
		{
			OFFSET 0.034277 -0.375199 -0.004496
			CHANNELS 3 Zrotation Yrotation Xrotation
			JOINT LeftFoot
			{
				OFFSET -0.013596 -0.397961 -0.043693
				CHANNELS 3 Zrotation Yrotation Xrotation
				JOINT LeftToe
				{
					OFFSET 0.026358 -0.055791 0.119288
					CHANNELS 3 Zrotation Yrotation Xrotation
					End Site
					{
						OFFSET 0.000000 0.000000 0.000000
					}
				}
			}
		}
	}
	JOINT RightUpLeg
	{
		OFFSET -0.067670 -0.090522 -0.004320
		CHANNELS 3 Zrotation Yrotation Xrotation
		JOINT RightLeg
		{
			OFFSET -0.038290 -0.382569 -0.008850
			CHANNELS 3 Zrotation Yrotation Xrotation
			JOINT RightFoot
			{
				OFFSET 0.015774 -0.398415 -0.042312
				CHANNELS 3 Zrotation Yrotation Xrotation
				JOINT RightToe
				{
					OFFSET -0.025372 -0.048144 0.123348
					CHANNELS 3 Zrotation Yrotation Xrotation
					End Site
					{
						OFFSET 0.000000 0.000000 0.000000
					}
				}
			}
		}
	}
	JOINT Spine
	{
		OFFSET -0.002533 0.108963 -0.026696
		CHANNELS 3 Zrotation Yrotation Xrotation
		JOINT Spine1
		{
			OFFSET 0.005487 0.135180 0.001092
			CHANNELS 3 Zrotation Yrotation Xrotation
			JOINT Spine2
			{
				OFFSET 0.001457 0.052922 0.025425
				CHANNELS 3 Zrotation Yrotation Xrotation
				JOINT Neck
				{
					OFFSET -0.002778 0.213870 -0.042857
					CHANNELS 3 Zrotation Yrotation Xrotation
					JOINT Head
					{
						OFFSET 0.005152 0.064970 0.051349
						CHANNELS 3 Zrotation Yrotation Xrotation
						End Site
						{
							OFFSET 0.000000 0.000000 0.000000
						}
					}
				}
				JOINT LeftShoulder
				{
					OFFSET 0.078845 0.121749 -0.034090
					CHANNELS 3 Zrotation Yrotation Xrotation
					JOINT LeftArm
					{
						OFFSET 0.090977 0.030469 -0.008868
						CHANNELS 3 Zrotation Yrotation Xrotation
						JOINT LeftForeArm
						{
							OFFSET 0.259612 -0.012772 -0.027456
							CHANNELS 3 Zrotation Yrotation Xrotation
							JOINT LeftHand
							{
								OFFSET 0.249234 0.008986 -0.001171
								CHANNELS 3 Zrotation Yrotation Xrotation
								End Site
								{
									OFFSET 0.000000 0.000000 0.000000
								}
							}
						}
					}
				}
				JOINT RightShoulder
				{
					OFFSET -0.081759 0.118833 -0.038615
					CHANNELS 3 Zrotation Yrotation Xrotation
					JOINT RightArm
					{
						OFFSET -0.096012 0.032551 -0.009143
						CHANNELS 3 Zrotation Yrotation Xrotation
						JOINT RightForeArm
						{
							OFFSET -0.253742 -0.013329 -0.021401
							CHANNELS 3 Zrotation Yrotation Xrotation
							JOINT RightHand
							{
								OFFSET -0.255298 0.007772 -0.005559
								CHANNELS 3 Zrotation Yrotation Xrotation
								End Site
								{
									OFFSET 0.000000 0.000000 0.000000
								}
							}
						}
					}
				}
			}
		}
	}
}
MOTION
Frames: 16
Frame Time: 0.050000
0.388421 0.957572 -1.385221 -2.223612 -12.264797 4.827161 7.775607 -0.044518 -7.361386 -6.608249 1.359711 9.238481 12.650173 22.511959 20.972755 0.000000 0.000000 0.000000 -5.002633 1.501424 -16.950199 3.210220 0.347794 16.157755 0.726800 -5.043639 11.319547 0.000000 0.000000 0.000000 9.105076 -1.004769 7.612570 -0.955763 0.616524 -27.210797 -4.249730 -2.973770 20.653966 3.537672 -2.655141 -17.524398 0.000000 0.000000 0.000000 4.353095 -26.714404 8.502840 -12.507248 -41.022207 1.174423 49.256225 -18.173619 -5.969652 0.000000 0.000000 0.000000 20.169123 5.678343 -1.368672 56.570383 -3.707568 -8.518432 -4.244655 32.081573 -0.590878 0.000000 0.000000 0.000000 
0.381046 0.957765 -1.386407 -1.991395 -11.525222 4.873702 7.875873 -0.058098 -7.611611 -6.676738 1.378585 9.738749 12.486723 22.518593 19.752546 0.000000 0.000000 0.000000 -4.920932 1.473431 -16.809561 3.365441 0.297319 16.399145 0.883801 -4.685310 11.433381 0.000000 0.000000 0.000000 9.355154 -0.957708 6.958826 -1.910679 0.822684 -26.963263 -3.483401 -3.159959 20.466257 3.189434 -2.448992 -16.613405 0.000000 0.000000 0.000000 3.981938 -26.238384 8.461301 -13.728119 -40.628785 1.397286 50.424457 -19.926546 -6.844494 0.000000 0.000000 0.000000 19.842807 5.771484 -1.180551 56.328833 -3.732242 -8.502378 -4.193039 32.892847 -0.584021 0.000000 0.000000 0.000000 
0.374519 0.958165 -1.387646 -1.518470 -10.615093 4.917297 7.623518 -0.107882 -7.870209 -6.272150 1.286515 10.385128 11.370730 21.246634 17.939045 0.000000 0.000000 0.000000 -5.238996 1.347933 -15.972008 3.609038 0.167552 15.594340 0.655065 -4.793574 10.980231 0.000000 0.000000 0.000000 9.635214 -0.855332 5.839075 -3.265921 1.122696 -26.543329 -2.996948 -3.194186 20.395988 3.827344 -2.868072 -15.881105 0.000000 0.000000 0.000000 3.501968 -25.095822 8.208069 -15.944652 -39.658692 1.744387 51.593051 -23.899419 -8.723313 0.000000 0.000000 0.000000 20.140449 5.327467 -1.310458 55.517900 -3.330341 -8.169571 -3.754540 33.405057 -0.432357 0.000000 0.000000 0.000000 
0.369053 0.957760 -1.389278 -1.204482 -9.113934 5.083744 7.879670 -0.132984 -8.440859 -6.492166 1.319417 11.077232 10.255598 19.940490 15.934045 0.000000 0.000000 0.000000 -5.480950 1.277159 -15.819292 4.242119 -0.029149 15.595342 0.389652 -5.020100 10.792603 0.000000 0.000000 0.000000 9.700090 -0.728384 4.598698 -4.395260 1.398304 -25.954274 -2.319655 -3.215047 20.467248 3.989112 -2.903184 -15.564831 0.000000 0.000000 0.000000 2.596975 -24.140407 8.112076 -18.428723 -38.637221 2.065951 53.554748 -28.359563 -11.209028 0.000000 0.000000 0.000000 20.200105 4.922537 -1.250223 54.532971 -2.653155 -7.758189 -3.330763 34.026236 -0.237211 0.000000 0.000000 0.000000 
0.365015 0.957544 -1.391347 -0.785748 -8.106396 5.153454 7.528298 -0.199412 -9.122809 -6.309790 1.279786 11.957657 9.915493 19.594392 14.772853 0.000000 0.000000 0.000000 -5.999858 1.164338 -15.216932 4.588994 -0.173213 14.682976 0.227796 -5.403469 11.276209 0.000000 0.000000 0.000000 9.795039 -0.634543 3.717053 -5.757264 1.732880 -25.574838 -1.726380 -3.141903 20.529067 4.330124 -3.078291 -15.353134 0.000000 0.000000 0.000000 1.365120 -23.110520 8.061281 -20.737085 -37.205091 2.240489 54.359845 -32.760423 -13.545912 0.000000 0.000000 0.000000 20.119643 5.063514 -0.942360 53.300082 -1.687446 -7.185530 -3.081373 34.402859 -0.108589 0.000000 0.000000 0.000000 
0.362448 0.957111 -1.393535 -0.468464 -6.625432 5.268249 7.396774 -0.261499 -9.886279 -6.399185 1.255119 12.282237 9.732499 19.462086 14.427524 0.000000 0.000000 0.000000 -6.339073 1.062650 -14.680214 5.048243 -0.345585 13.819432 -0.017740 -6.448392 13.328273 0.000000 0.000000 0.000000 9.782778 -0.547923 2.906085 -6.819362 2.025676 -24.874671 -1.270832 -2.972517 20.237884 4.625487 -3.232589 -14.343491 0.000000 0.000000 0.000000 0.258006 -22.874271 8.212271 -22.168808 -36.169757 2.264531 54.279673 -36.087499 -15.301284 0.000000 0.000000 0.000000 20.747433 4.879989 -0.800184 50.998995 -0.917833 -6.515586 -2.404623 34.589972 0.172139 0.000000 0.000000 0.000000 
0.361110 0.957010 -1.395434 -0.198051 -6.123083 5.282336 6.737795 -0.335208 -10.057694 -6.048641 1.154223 12.378429 10.097194 20.084086 13.759936 0.000000 0.000000 0.000000 -6.925412 0.973043 -14.116639 5.608446 -0.489690 13.015915 0.372357 -6.505638 15.730711 0.000000 0.000000 0.000000 10.028235 -0.536109 2.702892 -7.977800 2.312717 -24.793657 -0.800749 -2.777489 20.197666 5.249482 -3.608002 -14.431018 0.000000 0.000000 0.000000 -0.118763 -23.258339 8.415631 -23.009262 -35.329590 2.243628 53.839084 -36.750224 -15.551352 0.000000 0.000000 0.000000 20.841961 4.823623 -0.692058 49.676143 -0.205537 -6.073190 -2.913855 34.116715 0.059752 0.000000 0.000000 0.000000 
0.360652 0.956775 -1.397152 -0.191850 -5.393947 5.399610 6.578119 -0.369554 -10.175865 -5.888278 1.073930 12.057650 10.130493 20.214135 13.232391 0.000000 0.000000 0.000000 -7.000912 0.923025 -13.631711 5.860680 -0.571005 12.102347 0.640158 -6.799518 18.402374 0.000000 0.000000 0.000000 10.047522 -0.473610 2.141655 -8.439024 2.461132 -24.225955 -0.458101 -2.606600 19.950705 4.769827 -3.298041 -13.364653 0.000000 0.000000 0.000000 -0.164942 -23.801663 8.587355 -23.130213 -35.827011 2.341239 53.251853 -36.701493 -15.444450 0.000000 0.000000 0.000000 20.970354 4.782074 -0.545443 48.114231 0.440516 -5.633079 -3.460841 33.755304 -0.058458 0.000000 0.000000 0.000000 
0.360467 0.956642 -1.398685 0.094038 -5.109882 5.362494 5.991068 -0.421482 -10.045152 -5.456314 0.945831 11.572451 10.183803 20.316164 13.219605 0.000000 0.000000 0.000000 -7.303772 0.867152 -13.089670 6.273923 -0.661119 11.537493 0.585144 -7.356577 20.113640 0.000000 0.000000 0.000000 9.996347 -0.432286 1.824988 -9.339615 2.706896 -23.823960 -0.005280 -2.742336 19.804267 4.570165 -3.165031 -13.228950 0.000000 0.000000 0.000000 -0.000660 -24.149074 8.668567 -22.290471 -36.881897 2.379265 51.928236 -35.201604 -14.338107 0.000000 0.000000 0.000000 21.105875 4.864390 -0.512732 47.607374 1.016761 -5.336973 -4.655383 32.297716 -0.374033 0.000000 0.000000 0.000000 
0.360311 0.956334 -1.400123 0.196614 -4.691506 5.266145 5.815044 -0.440327 -9.957342 -5.630907 0.960952 11.280034 10.533437 20.886591 13.019383 0.000000 0.000000 0.000000 -7.229252 0.823346 -12.338391 6.590248 -0.730889 10.705772 -0.573917 -8.802408 18.871154 0.000000 0.000000 0.000000 9.844817 -0.418273 1.749056 -10.210282 2.944866 -23.619356 0.648008 -3.171083 19.705699 3.593152 -2.575158 -12.230532 0.000000 0.000000 0.000000 0.295526 -24.422509 8.702901 -21.391244 -38.249973 2.443540 50.482507 -33.767932 -13.223058 0.000000 0.000000 0.000000 21.023581 4.615431 -0.693979 47.649204 1.156774 -5.282524 -5.725172 31.688353 -0.660199 0.000000 0.000000 0.000000 
0.359788 0.956035 -1.401257 0.450857 -4.673855 5.163215 5.225980 -0.481743 -9.812766 -5.237467 0.860302 10.871065 10.954116 21.500094 13.413197 0.000000 0.000000 0.000000 -7.226249 0.781774 -11.481990 6.673709 -0.738771 9.720495 -1.348145 -9.665322 17.302813 0.000000 0.000000 0.000000 9.435389 -0.399235 1.718625 -10.726057 3.075868 -23.629895 0.740336 -3.522229 19.755269 3.703149 -2.756304 -11.526591 0.000000 0.000000 0.000000 0.680455 -24.777504 8.745980 -21.448014 -38.882116 2.607425 49.351074 -33.078745 -12.526360 0.000000 0.000000 0.000000 21.292890 4.650583 -0.809153 48.270056 1.230433 -5.302068 -6.736542 31.177842 -0.926962 0.000000 0.000000 0.000000 
0.358837 0.955733 -1.402050 0.691487 -4.618032 5.021063 5.130929 -0.481319 -9.603685 -5.474244 0.909170 10.821339 10.857828 21.387404 12.983341 0.000000 0.000000 0.000000 -7.050881 0.754354 -10.783048 6.744295 -0.745653 8.963293 -2.482505 -11.281564 16.143561 0.000000 0.000000 0.000000 8.916330 -0.355125 1.509355 -11.435419 3.271944 -23.430579 1.222765 -4.084663 19.789258 3.646927 -2.836046 -10.879800 0.000000 0.000000 0.000000 0.418141 -24.281241 8.668641 -22.266861 -39.271734 2.883434 48.703685 -34.205380 -12.686204 0.000000 0.000000 0.000000 21.605249 4.155860 -1.289464 48.885562 0.457347 -5.640647 -6.783169 31.435116 -0.985254 0.000000 0.000000 0.000000 
0.357637 0.955550 -1.402684 0.745746 -5.238028 4.914920 5.063492 -0.468710 -9.442571 -5.628165 0.968224 10.934219 11.330125 22.067117 12.961026 0.000000 0.000000 0.000000 -6.709256 0.758659 -10.312216 6.943214 -0.751524 8.230819 -3.461267 -12.858942 15.350768 0.000000 0.000000 0.000000 8.685756 -0.376140 1.800942 -11.914124 3.385430 -23.453521 1.138810 -4.070961 19.773269 3.989644 -3.146088 -10.605273 0.000000 0.000000 0.000000 0.224385 -23.845257 8.587340 -23.990932 -38.693386 3.188325 48.952567 -36.744484 -13.708013 0.000000 0.000000 0.000000 22.087664 3.432357 -1.889348 50.033182 -0.813157 -6.254743 -5.879008 32.105636 -0.789785 0.000000 0.000000 0.000000 
0.356514 0.954838 -1.403102 0.709047 -5.805901 4.780109 5.300488 -0.432002 -9.255905 -5.691828 1.006373 11.028479 11.261543 21.928890 12.983989 0.000000 0.000000 0.000000 -6.229675 0.765856 -9.918187 6.976306 -0.738958 8.163232 -4.130496 -13.734752 13.581607 0.000000 0.000000 0.000000 8.387369 -0.342970 1.646197 -12.299969 3.513969 -22.992848 1.319292 -4.599499 19.646823 4.720740 -3.824680 -10.112388 0.000000 0.000000 0.000000 -1.412071 -22.427366 8.563862 -27.045068 -36.844657 3.423852 49.529736 -42.212519 -15.963525 0.000000 0.000000 0.000000 22.173603 2.442963 -2.756258 51.591242 -2.391319 -7.061324 -4.522769 32.249814 -0.497212 0.000000 0.000000 0.000000 
0.355400 0.953576 -1.403382 0.648676 -6.752317 4.749214 5.576621 -0.384796 -9.021211 -5.958459 1.095552 10.882523 11.605701 22.380050 13.167031 0.000000 0.000000 0.000000 -6.037725 0.790930 -9.947054 7.540134 -0.808009 9.007703 -4.500665 -13.949663 10.841658 0.000000 0.000000 0.000000 8.071201 -0.281409 1.234156 -12.442905 3.603496 -22.205779 1.302254 -4.558251 19.765143 5.870486 -4.741419 -10.129861 0.000000 0.000000 0.000000 -3.275410 -21.222396 8.636552 -30.160435 -34.065430 3.255304 50.428758 -48.735438 -18.978466 0.000000 0.000000 0.000000 22.710471 1.431880 -3.611346 52.540595 -4.296873 -7.978415 -2.081668 32.964189 0.123115 0.000000 0.000000 0.000000 
0.354025 0.952258 -1.403461 0.685774 -7.298704 4.464657 5.486061 -0.363196 -8.544246 -5.663555 1.040088 10.689003 11.753180 22.562396 13.273907 0.000000 0.000000 0.000000 -5.798029 0.766163 -9.293796 7.498911 -0.786136 9.322573 -4.449200 -13.309237 8.220953 0.000000 0.000000 0.000000 7.542403 -0.279066 1.407456 -12.496116 3.626215 -21.995875 1.243579 -5.521200 20.013634 7.653977 -6.221216 -10.078237 0.000000 0.000000 0.000000 -6.029814 -19.480450 8.780257 -33.283184 -29.631569 2.386153 49.958799 -55.760151 -21.490618 0.000000 0.000000 0.000000 22.944720 0.216840 -4.768654 53.388607 -7.045615 -9.259296 0.112563 32.956759 0.621775 0.000000 0.000000 0.000000 
